<?xml version="1.0" encoding="UTF-8"?><svg id="_レイヤー_2" xmlns="http://www.w3.org/2000/svg" viewBox="0 0 293.35 59.83"><defs><style>.cls-1{fill:#004ea2;}.cls-2{fill:#e7b000;}.cls-3{fill:#e5005a;}.cls-4{fill:#231815;}.cls-5{fill:#45b035;}</style></defs><g id="_レイヤー_1-2"><path class="cls-4" d="m72.6,30.59c.27.01.55.02.85.03.25.01.51.02.79.03s.55,0,.81,0c.4,0,.74-.02,1.03-.05s.53-.13.71-.27c.19-.15.33-.37.42-.67s.14-.73.14-1.27V9.32s4.25,0,4.25,0l.02,20.3c0,.87-.1,1.59-.31,2.16-.21.58-.51,1.04-.92,1.39-.41.35-.91.59-1.51.73-.6.14-1.29.21-2.08.21-.57,0-1.1-.03-1.61-.09-.5-.05-.95-.13-1.34-.2-.46-.09-.88-.19-1.27-.31v-2.94Z"/><path class="cls-4" d="m91.77,9.32h5.61s8.24,24.37,8.24,24.37h-4.67s-2.12-6.61-2.12-6.61h-8.57s-2.03,6.61-2.03,6.61h-4.62s8.17-24.37,8.17-24.37Zm5.89,14.09l-3.1-10.32h-.07s-3.1,10.32-3.1,10.32h6.28Z"/><path class="cls-4" d="m107.63,9.32h7.02s9.17,20.56,9.17,20.56h.09c-.01-.41-.02-.82-.04-1.24-.01-.37-.02-.76-.02-1.18v-1.21s0-16.92,0-16.92h4.2s0,24.37,0,24.37h-6.87s-7.77-17.14-7.77-17.14c-.21-.48-.41-.92-.6-1.33-.19-.41-.35-.77-.48-1.08-.16-.37-.31-.7-.44-1.01h-.07v20.56s-4.2,0-4.2,0V9.32Z"/><path class="cls-4" d="m133.01,9.32h9.98c.54,0,1.09.04,1.64.12.55.08,1.08.23,1.59.45.51.22.98.52,1.41.9.44.38.82.86,1.15,1.44s.59,1.3.77,2.13.27,1.8.27,2.92-.1,2.09-.3,2.91c-.2.83-.47,1.53-.81,2.11-.34.58-.74,1.05-1.2,1.42-.46.37-.95.65-1.46.86-.52.21-1.05.35-1.6.43-.55.07-1.09.11-1.61.11h-5.59v8.57s-4.23,0-4.23,0V9.32Zm9.33,11.99c.64,0,1.15-.1,1.54-.31.39-.2.71-.49.93-.85.23-.36.38-.79.47-1.28s.12-1.02.12-1.59-.04-1.09-.12-1.59c-.08-.5-.24-.94-.47-1.32-.23-.38-.54-.68-.93-.91s-.91-.33-1.54-.33h-5.1v8.18h5.1Z"/><path class="cls-4" d="m152.28,9.32h4.23s0,24.37,0,24.37h-4.23s0-24.37,0-24.37Z"/><path class="cls-4" d="m167.41,9.32h5.61s8.24,24.37,8.24,24.37h-4.67s-2.12-6.61-2.12-6.61h-8.57s-2.03,6.61-2.03,6.61h-4.62s8.17-24.37,8.17-24.37Zm5.89,14.09l-3.1-10.32h-.07s-3.1,10.32-3.1,10.32h6.28Z"/><path class="cls-3" d="m13.33,13.83c-.28.18-.56.37-.83.57-.14.1-.27.2-.4.31-.09.07-.17.14-.25.21-.22,1.13-.34,2.29-.34,3.49,0,.37.01.73.04,1.09.33-2.2,1.06-4.16,2.09-5.87,0,0-.02,0-.03.01-.09.06-.18.12-.28.18Z"/><path class="cls-1" d="m14.4,12.5c-.2.27-.39.55-.57.83-.06.09-.12.18-.18.28,0,0,0,.02-.01.03,1.71-1.03,3.67-1.76,5.87-2.09-.36-.02-.73-.04-1.09-.04-1.19,0-2.36.12-3.49.34-.07.08-.14.16-.21.25-.11.13-.21.27-.31.41Z"/><path class="cls-5" d="m12.5,45.43c.27.2.55.39.83.57.09.06.18.12.28.18,0,0,.02,0,.03.01-1.03-1.71-1.76-3.67-2.09-5.87-.02.36-.04.73-.04,1.09,0,1.19.12,2.36.34,3.49.08.07.16.14.25.21.13.11.27.21.4.31Z"/><path class="cls-1" d="m13.83,46.5c.18.28.37.56.57.83.1.14.21.27.31.41.07.09.14.16.21.25,1.13.22,2.29.34,3.49.34.37,0,.73-.01,1.09-.04-2.2-.33-4.16-1.06-5.87-2.09,0,0,0,.02.01.03.06.09.12.18.18.28Z"/><path class="cls-1" d="m16.21,24.47c-.18,0-.36,0-.54,0-3.73,0-7.13.49-9.77,1.31.78-4.42,2.81-8.25,5.95-10.84,0,0,0-.01,0-.02,0,0,0,0,0,0,0-.02.01-.05.02-.07.03-.17.08-.34.12-.51.08-.35.17-.7.27-1.04.06-.2.12-.4.18-.6.02-.06.05-.14.07-.2C5.25,14.95,0,21.83,0,29.92s5.23,14.95,12.48,17.42c-.02-.06-.04-.12-.05-.18-.06-.2-.12-.4-.18-.6-.1-.34-.19-.69-.27-1.04-.04-.17-.08-.34-.12-.51,0-.02-.01-.05-.02-.07,0,0,0,0,0,0,0,0,0-.01,0-.02-3.14-2.6-5.17-6.42-5.95-10.84,2.63.81,6.04,1.31,9.77,1.31.18,0,.36,0,.54,0-.67-1.69-1.05-3.52-1.05-5.45,0-1.93.38-3.76,1.05-5.45Z"/><path class="cls-2" d="m45.44,47.33c.2-.27.39-.55.57-.83.02-.03.17-.27.2-.3-1.77.92-3.82,1.78-5.87,2.09.36.02.73.04,1.09.04,1.19,0,2.36-.12,3.49-.34.07-.08.14-.16.21-.25.11-.13.21-.27.31-.41Z"/><path class="cls-5" d="m46.5,46c.28-.18.56-.37.83-.57.14-.1.27-.21.41-.31.09-.07.17-.14.25-.21.22-1.13.34-2.29.34-3.49,0-.37-.01-.73-.04-1.09-.33,2.2-1.06,4.16-2.09,5.87,0,0,.02,0,.03-.01.09-.06.18-.12.28-.18Z"/><path class="cls-5" d="m47.15,47.41c-.2.07-.4.12-.6.18-.34.1-.69.19-1.04.27-.17.04-.34.08-.51.12-.02,0-.05.01-.07.02,0,0,0,0,0,0,0,0-.01,0-.02,0-2.6,3.14-6.42,5.17-10.84,5.95.81-2.63,1.31-6.04,1.31-9.77,0-.18,0-.36,0-.54-1.69.67-3.52,1.05-5.45,1.05s-3.76-.38-5.45-1.05c0,.18,0,.36,0,.54,0,3.73.49,7.13,1.31,9.77-4.42-.78-8.25-2.81-10.84-5.95,0,0-.01,0-.02,0,0,0,0,0,0,0-.02,0-.05-.01-.07-.02-.17-.03-.34-.08-.51-.12-.35-.08-.7-.17-1.04-.27-.2-.06-.4-.12-.6-.18-.06-.02-.12-.03-.18-.05,2.47,7.26,9.32,12.48,17.42,12.48s14.95-5.23,17.42-12.48c-.06.02-.12.04-.18.05Z"/><path class="cls-3" d="m47.33,14.4c-.27-.2-.55-.39-.83-.57-.09-.06-.18-.12-.27-.18,0,0-.02,0-.03-.01,1.03,1.71,1.76,3.67,2.09,5.87.02-.36.04-.73.04-1.09,0-1.19-.12-2.36-.34-3.49-.08-.07-.16-.14-.25-.21-.13-.11-.27-.21-.4-.31Z"/><path class="cls-3" d="m29.92,0c-8.09,0-14.95,5.23-17.42,12.48.06-.02.12-.04.18-.05.2-.06.4-.12.6-.18.34-.1.69-.19,1.04-.27.17-.04.34-.08.51-.12.02,0,.05-.01.07-.02,0,0,0,0,0,0,0,0,.01,0,.02,0,2.6-3.14,6.42-5.17,10.84-5.95-.81,2.63-1.31,6.04-1.31,9.77,0,.18,0,.36,0,.54,1.69-.67,3.52-1.05,5.45-1.05s3.76.38,5.45,1.05c0-.18,0-.36,0-.54,0-3.73-.49-7.13-1.31-9.77,4.42.78,8.25,2.81,10.84,5.95,0,0,.01,0,.02,0,0,0,0,0,0,0,.02,0,.05.01.07.02.17.03.34.08.51.12.35.08.7.17,1.04.27.2.06.4.12.6.18.06.02.12.03.18.05C44.86,5.23,38.01,0,29.92,0Z"/><path class="cls-2" d="m46.01,13.34c-.18-.28-.37-.56-.57-.83-.1-.14-.2-.27-.31-.4-.07-.09-.14-.17-.21-.25-1.13-.22-2.29-.34-3.49-.34-.37,0-.73.01-1.09.04,2.2.33,4.16,1.06,5.87,2.09,0,0,0-.02-.01-.03-.06-.09-.12-.18-.18-.27Z"/><path class="cls-2" d="m47.35,12.5c.02.06.04.12.05.18.07.2.12.4.18.6.1.34.19.69.27,1.04.04.17.08.34.12.51,0,.02.01.05.02.07,0,0,0,0,0,0,0,0,0,.01,0,.02,3.14,2.6,5.17,6.42,5.95,10.84-2.63-.81-6.04-1.31-9.77-1.31-.18,0-.36,0-.54,0,.67,1.69,1.05,3.52,1.05,5.45s-.38,3.76-1.05,5.45c.18,0,.36,0,.54,0,3.73,0,7.13-.49,9.77-1.31-.78,4.42-2.81,8.25-5.95,10.84,0,0,0,.01,0,.02,0,0,0,0,0,0,0,.02-.01.05-.02.07-.02.11-.05.22-.07.33-.01.06-.03.12-.05.18-.08.35-.17.7-.27,1.04-.06.2-.12.4-.18.6-.02.06-.03.12-.05.18,7.26-2.47,12.48-9.32,12.48-17.42s-5.23-14.95-12.48-17.42Z"/><path class="cls-4" d="m72.53,46.06h10.44s0,1.21,0,1.21h-10.44s0-1.21,0-1.21Z"/><path class="cls-4" d="m84.28,47.4l-.13-.98.88-.05v-3.93s1.39,0,1.39,0l.06-.26c.12-.61.13-.62.17-.97l1.08.06c-.11.51-.18.78-.31,1.17h1.68s0,3.6,0,3.6l.54-.05v.5h4.73c-.22,1.1-.82,2.44-1.52,3.37.53.36,1.09.62,2.27,1.08l-.72.96c-1.29-.61-1.35-.63-2.29-1.25-.75.63-1.31.98-2.24,1.36l-.62-1c.72-.23,1.67-.72,2.03-1.03-.49-.49-.81-.96-1.37-2.01l.67-.45h-1.02s0-.6,0-.6l-.47.05v4.19c0,.57-.31.83-.99.83-.21,0-.7-.02-1.11-.06l-.39-1.04c.16.01.26.02.31.02l.55.06c.07.01.18.01.24.01.32,0,.42-.07.42-.32v-3.57s-.65.06-.65.06v3.19s-.9,0-.9,0v-3.11s-.53.06-.53.06c0,2.2-.36,3.59-1.21,4.74l-.73-.88c.67-1.1.88-2,.92-3.79l-.75.05Zm3.84-1.25v-2.76h-2.07v2.92s2.07-.16,2.07-.16Zm-1.05-2.4c.36.69.51,1.05.75,1.82l-.86.44c-.32-.97-.32-.99-.71-1.86l.81-.39Zm6.24-1.91v2.71c0,.3.07.39.31.39.45,0,.49-.06.53-.81.01-.19.01-.25.05-.79l.92.41c-.05,1.46-.07,1.58-.26,1.83-.18.24-.64.35-1.55.35-.76,0-.97-.17-.97-.78v-2.33h-1.2v.66c-.02,1.27-.31,2-1.11,2.82l-.67-.82c.51-.47.8-1.16.8-1.96v-1.67s3.16,0,3.16,0Zm-2.46,5.68c.23.56.75,1.35,1.18,1.77.36-.41.75-1.11.97-1.77h-2.15Z"/><path class="cls-4" d="m98.68,49.96c-.5.81-.97,1.34-1.88,2.09l-.82-.9c.65-.44,1.27-1.08,1.79-1.83l.91.63Zm-1.73-8.07h4.34s0,7.19,0,7.19h-4.34s0-7.19,0-7.19Zm3.3,2.15v-1.15h-2.25v1.15h2.25Zm0,2.01v-1.04h-2.25v1.04h2.25Zm0,2.07v-1.1h-2.25v1.1h2.25Zm-.2,1.12c.65.8.82,1,1.6,1.67l-.87.79c-.69-.62-.98-.93-1.59-1.77l.86-.69Zm5.71-7.92v2.37h1.42s0,1.05,0,1.05h-1.42v6.18c0,.5-.09.73-.35.87-.19.11-.5.14-1.31.14-.25,0-.53,0-.94-.01l-.42-1.24c.26.02.48.04.56.05.36.02.69.05.88.05.38,0,.47-.07.47-.39v-4.05c-.51,1.42-1.54,2.93-2.69,3.96l-.66-1.1c1.34-1.3,2.21-2.64,2.92-4.45h-2.65s0-1.05,0-1.05h3.08v-2.37s1.11,0,1.11,0Z"/><path class="cls-4" d="m108.76,41.95h9.69s0,9.88,0,9.88h-1.11s0-.39,0-.39h-7.47v.49s-1.11,0-1.11,0v-9.98Zm8.58,8.41v-7.3h-7.47v7.3h7.47Zm-7.05-5.65h4.15v-1.36s1.05,0,1.05,0v1.36h1.49s0,1.02,0,1.02h-1.49v3.45c0,.54-.38.74-1.36.74-.11,0-.48,0-.79-.01l-.3-1.05c.87.05,1.02.06,1.17.06s.23-.06.23-.2v-2.99h-4.15s0-1.02,0-1.02Zm1.72,1.15c.62.97.9,1.51,1.21,2.34l-1.03.6c-.26-.78-.47-1.21-1.12-2.39l.94-.55Z"/><path class="cls-4" d="m120.71,44.43c.59.38,1.09.76,1.89,1.46l-.74.97c-.56-.54-1.21-1.06-1.85-1.51l.71-.92Zm2.12,3.74c-.35,1.31-.93,2.69-1.66,3.85l-1.09-.79c.82-1.27,1.26-2.16,1.82-3.78l.93.72Zm-1.46-6.64c.72.51,1.29,1.03,1.84,1.65l-.81.82c-.64-.67-1.24-1.18-1.86-1.61l.84-.86Zm1.4,5.49v-1.1s3.3,0,3.3,0v-1.9h-2.69s0-1.06,0-1.06h2.69v-1.7s1.17,0,1.17,0v1.7h3.07s0,1.06,0,1.06h-3.07v1.9h3.6s0,1.1,0,1.1h-4.43c-.37,1.16-.62,1.79-1.29,3.27,1.42-.06,2.16-.13,3.6-.33-.53-.81-.8-1.2-1.31-1.84l1-.55c.93,1.04,1.71,2.15,2.49,3.61l-1.06.79c-.1-.2-.3-.58-.56-1.08-1.94.36-3.68.55-6.31.69l-.44-1.22c.66,0,.75-.01,1.42-.02.59-1.23.98-2.31,1.23-3.32h-2.39Z"/><path class="cls-4" d="m138.05,41.43v2.8c.27,2.68,1.7,4.47,4.95,6.23l-.85,1.17c-2.82-1.8-4.19-3.36-4.66-5.28-.44,2.26-1.83,3.87-4.76,5.52l-.81-1.16c3.48-1.69,4.76-3.51,4.88-7v-2.27s1.25,0,1.25,0Z"/><path class="cls-4" d="m152.57,42.2h8.03s0,9.6,0,9.6h-1.21s0-.66,0-.66h-5.62v.66s-1.21,0-1.21,0v-9.6Zm6.82,3.86v-2.69h-5.62v2.69h5.62Zm0,3.92v-2.83h-5.62v2.83h5.62Z"/><path class="cls-4" d="m163.33,44.61v-1.09s4.6,0,4.6,0v-2.16s1.09,0,1.09,0v2.16h4.64s0,1.09,0,1.09h-4.04c.97,1.85,2.51,3.48,4.39,4.6l-.85,1.08c-.72-.53-1.11-.86-1.85-1.57v.99s-2.28,0-2.28,0v2.25s-1.09,0-1.09,0v-2.25h-2.25s0-.86,0-.86c-.73.75-1.21,1.16-1.91,1.64l-.86-1c1.78-1,3.53-2.95,4.37-4.88h-3.96Zm4.6.78c-.53,1.24-1.17,2.26-2.04,3.24h2.04v-3.24Zm3.31,3.24c-1.02-1.02-1.84-2.19-2.22-3.16v3.16h2.22Z"/><path class="cls-4" d="m176.15,41.97h8.7s0,3.24,0,3.24h-3.54s.01.25.01.25l.02.65c0,.06.01.19.02.38h4.29s0,1.05,0,1.05h-4.16c.24,1.08.55,1.69,1.21,2.27.49.45,1.24.87,1.55.87.18,0,.19-.02.26-.71.07-.55.08-.7.1-1.51l1.04.55c-.07,1.52-.08,1.66-.15,1.98-.16.66-.43.91-.98.91-.86,0-2.27-.78-3.04-1.67-.58-.69-.88-1.41-1.11-2.7h-3.1v2.87c1.17-.13,2.44-.32,3.68-.57v1.08c-2,.39-3.98.72-5.56.91l-.38-1.17h.17c.59-.05.6-.05.96-.1v-8.58Zm7.53,2.26v-1.24h-6.39v1.24h6.39Zm-3.41,2.26c-.06-.73-.07-.84-.07-1.28h-2.92v1.28h2.99Z"/><path class="cls-4" d="m187.53,41.76h4.37s0,3.94,0,3.94h-3.29v6.35s-1.09,0-1.09,0v-10.29Zm3.39,1.61v-.78h-2.31v.78h2.31Zm0,1.46v-.66h-2.31v.66h2.31Zm-.88,1.6h4.71s0,4.42,0,4.42c.45.02.69.02.94.02.48,0,.56-.06.56-.36v-4.82h-3.47s0-3.94,0-3.94h4.52s0,9.08,0,9.08c0,.84-.35,1.15-1.33,1.15-.22,0-.6,0-1.03-.01l-.24-.84h-4.67s0-4.71,0-4.71Zm3.69,1.86v-.99h-2.67v.99h2.67Zm0,1.94v-1.1h-2.67v1.1h2.67Zm2.52-6.86v-.78h-2.47v.78h2.47Zm0,1.46v-.66h-2.47v.66h2.47Z"/><path class="cls-4" d="m203.44,42c-.86,2.06-2.52,4.27-3.9,5.2l-.61-1.12c1.47-1.21,2.57-2.7,3.25-4.4l1.25.32Zm1.02,3.01l-2.16,4.96,4.65-.38c-.18-.36-.78-1.23-1.45-2.13l1.06-.59c.96,1.11,1.94,2.65,2.65,4.16l-1.18.74c-.24-.57-.27-.66-.56-1.22-2.57.33-5.92.69-7.65.82l-.54-1.22,1.72-.1,2.14-5.41,1.31.36Zm2.01-3.47c.84,1.91,1.89,3.31,3.26,4.33l-.81,1.12c-1.9-1.72-3.04-3.31-3.61-5.03l1.16-.42Z"/><path class="cls-4" d="m211.23,44.22v-1.06s2.94,0,2.94,0l-.86-1.51,1.24-.31.87,1.82h1.71s.92-1.86.92-1.86l1.24.37-.93,1.49h3.01s0,1.06,0,1.06h-3.14c.7,1.11,2,2.25,3.64,3.2l-.73,1-.98-.74v2.89h1.46s0,1.04,0,1.04h-10.66s0-1.04,0-1.04h1.55v-2.98c-.55.49-.63.55-1.24.91l-.56-1.1c1.42-.68,2.64-1.8,3.49-3.19h-2.98Zm3.47,6.36v-2.88h-1.12v2.88h1.12Zm4.27-3.9c-.76-.76-1.3-1.45-1.95-2.46h-1.55c-.57,1.05-1.1,1.76-1.83,2.46h5.33Zm-2.13,3.9v-2.88h-1.16v2.88h1.16Zm2.28,0v-2.88h-1.3v2.88h1.3Z"/><path class="cls-4" d="m223.5,44.46c.91.62,1.29.92,1.88,1.51l-.66.94c-.68-.62-1.35-1.16-1.97-1.57l.75-.88Zm2.29,3.54c-.54,1.42-1.23,2.89-1.86,3.96l-1.05-.75c.69-1.02,1.34-2.29,2-3.94l.92.74Zm-1.74-6.48c.96.65,1.39.96,2.01,1.52l-.72.94c-.81-.68-1.03-.85-2.04-1.55l.75-.91Zm1.67,3h3.2v-1.45c-1.16.11-1.34.12-2.49.18l-.39-.99c2.02-.04,4.91-.41,6.11-.76l.81,1c-1.16.25-1.8.35-2.96.47v1.55h3.65s0,1.04,0,1.04h-3.65v1.7h2.88s0,4.77,0,4.77h-1.11s0-.54,0-.54h-4.31v.54s-1.08,0-1.08,0v-4.77s2.55,0,2.55,0v-1.7h-3.2s0-1.04,0-1.04Zm6.05,5.96v-2.22h-4.31v2.22h4.31Z"/><path class="cls-4" d="m235.03,49.72v-.84s2.46,0,2.46,0v-.63h-2.19s0-3.47,0-3.47h2.19v-.56h-2.7s0-.87,0-.87h2.7v-.57c-.94.06-1.24.07-1.8.07l-.5-.84c1.23.01,3.68-.26,4.58-.51l.8.86c-.66.14-.85.17-2.08.31v.68h2.63s0,.53,0,.53h.96v-2.51s1.14,0,1.14,0l-.04,2.51h2.1c-.01,1.43-.05,3.99-.08,5.37-.06,2.21-.33,2.68-1.55,2.68-.26,0-.48-.01-.97-.05l-.27-1.11c.67.05.8.06.97.06.49,0,.59-.1.65-.69.05-.42.12-1.9.13-2.53q.01-.62.02-2.61h-1.05c-.07,3.88-.62,5.52-2.41,7.31l-.74-.91.39-.37c-1.76.3-3.81.53-5.39.59l-.17-.98c1.08-.04,1.68-.08,2.7-.18v-.73h-2.46Zm2.46-3.59v-.63h-1.23v.63h1.23Zm0,1.4v-.68h-1.23v.68h1.23Zm3.38-2.55v-.76h-2.39v.56h2.23s0,3.47,0,3.47h-2.23v.63h2.39s0,.84,0,.84h-2.39v.61c1.04-.1,1.53-.14,2.39-.26v.3c.79-1.08,1.15-2.71,1.19-5.38h-1.19Zm-1.11,1.15v-.63h-1.28v.63h1.28Zm0,1.4v-.68h-1.28v.68h1.28Z"/><path class="cls-4" d="m248.18,46.7h-1.43s0-1.05,0-1.05h2.52s0,3.65,0,3.65c.18.38.49.68.93.91.64.33,1.47.47,2.89.47.51,0,1.11-.01,3.57-.07l.97-.02-.42,1.06c-2.04.06-2.84.07-4.21.07-1.46,0-2.08-.08-2.74-.36-.45-.19-.73-.39-1.39-1.03-.59.65-.85.88-1.71,1.52l-.55-1.22c.76-.42,1.27-.78,1.55-1.12v-2.8Zm-.23-5.07c.99.97,1.19,1.21,1.64,1.8l-.87.76c-.78-.98-1.08-1.31-1.61-1.83l.85-.74Zm1.76,6.82h3.24v-.63h-2.56s0-3.94,0-3.94h2.56v-.56h-3.17s0-.94,0-.94h3.17v-1.09s.97,0,.97,0v1.09h3.24s0,.94,0,.94h-3.24v.56h2.71s0,3.94,0,3.94h-2.71v.63h3.47s0,.94,0,.94h-3.47v.98s-.97,0-.97,0v-.98h-3.24s0-.94,0-.94Zm3.24-3v-.72h-1.59v.72h1.59Zm0,1.54v-.78h-1.59v.78h1.59Zm2.66-1.54v-.72h-1.77v.72h1.77Zm0,1.54v-.78h-1.77v.78h1.77Z"/><path class="cls-4" d="m260.23,44.49h-1.52s0-1.02,0-1.02h1.52v-2.11s1.03,0,1.03,0v2.11h1.05s0,.75,0,.75c.61-.7,1.3-1.94,1.66-2.93l1.02.17c-.19.44-.23.5-.45.94h1.22c.23-.45.26-.54.48-1.1l1.1.16c-.27.45-.32.53-.61.94h2.41s0,.76,0,.76h-2.61v.59h2.14s0,.73,0,.73h-2.14v.5h2.14s0,.73,0,.73h-2.14v.55h2.75s0,.8,0,.8h-6.13s0-2.43,0-2.43c-.27.41-.32.47-.63.84l-.57-.85.15-.14h-.84v2.06c.54-.14.62-.17,1.12-.32v1.11c-.51.14-.58.17-1.12.3v3.57c0,.56-.31.78-1.11.78-.26,0-.5-.01-1.03-.07l-.25-1.06q.73.05.96.05c.31,0,.41-.1.41-.42v-2.52s-.65.16-.65.16l-.63.16-.35-1.14c.62-.11.74-.13,1.63-.33v-2.31Zm2.47,3.96v-.91s5.43,0,5.43,0l-.43,1.52h1.47c-.16,1.37-.31,2.15-.53,2.5-.19.33-.59.47-1.39.47-.22,0-.61-.01-1.03-.03l-.39-1.04c1.23.05,1.25.05,1.4.05.38,0,.54-.08.65-.35.01-.05.08-.32.18-.82h-1.54s.38-1.37.38-1.37h-1.37c-.18,1.84-1.02,2.92-2.8,3.61l-.82-.87c1.65-.45,2.51-1.36,2.58-2.74h-1.78Zm2.88-4.68v-.59h-1.53v.59h1.53Zm0,1.23v-.5h-1.53v.5h1.53Zm0,1.28v-.55h-1.53v.55h1.53Z"/><path class="cls-4" d="m270.56,44.68v-1.06s1.36,0,1.36,0v-2.26s.98,0,.98,0v2.26h.92s.37-.44.37-.44l.2.21c.31-.59.63-1.33.81-1.84l.96.38c-.24.48-.42.79-1.19,2.07l.36.5c.35-.51.5-.78.86-1.45l.84.41c-.27.53-.81,1.29-1.8,2.62l.81-.08c-.06-.29-.07-.33-.14-.6l.66-.3c.29.84.39,1.22.49,1.85l-.75.35c-.04-.27-.05-.31-.11-.56l-2.12.32-.49,1.1c-.27-.41-.39-.6-.67-1.09v5s-.98,0-.98,0v-4.63c-.35.75-.76,1.49-1.15,2.07l-.5-1.24c.78-.96,1.34-2.19,1.64-3.59h-1.35Zm2.34,0v.87c.24.44.65.98,1.04,1.35l-.23-.75.56-.02.6-.88c-.25-.3-.64-.76-.99-1.2v.63s-.98,0-.98,0Zm1.02,3.85v-.9s3.31,0,3.31,0c-.17-1.83-.17-1.95-.17-4.49l-.02-1.23v-.57s.96,0,.96,0c-.01.48-.01.82-.01,1.09,0,.19,0,.54.01.97l.32-.36.2.23c.21-.37.63-1.16.88-1.67l.92.26c-.43.79-.88,1.52-1.28,2.03l.42.55c.31-.55.69-1.2.8-1.37l.82.44c-.74,1.19-.92,1.45-1.79,2.52l.99-.11c-.08-.31-.11-.37-.24-.75l.67-.23c.24.42.51,1.11.74,1.83l-.88.37-.1-.55-.72.1.5.96h1.03s0,.9,0,.9h-1.39s.81.41.81.41c-.38.61-.62.91-1.13,1.39.36.37.59.54.75.54.07,0,.12-.05.14-.13.05-.21.1-.73.12-1.1l.86.31c-.1,1.66-.25,2.09-.76,2.09-.48,0-1.03-.32-1.82-1.09-.72.51-1.23.79-2.17,1.12l-.68-.81c.99-.29,1.65-.61,2.21-1.06-.42-.61-.6-.98-.79-1.66h-1.78s-.07.43-.07.43c.74.48,1.1.75,1.6,1.24l-.68.86c-.41-.44-.66-.68-1.15-1.1-.2.78-.53,1.31-1.27,2.07l-.75-.75c.8-.8,1.21-1.63,1.33-2.75h-.75Zm4.46-2.49l.57-.84c-.51-.73-.63-.87-.96-1.2,0,.79.01,1.27.04,2.04h.35Zm.86,1.59l-.41-.85-.78.08c.02.37.04.43.09.76h1.09Zm-.88.9c.16.44.29.65.63,1.06.37-.33.55-.57.84-1.06h-1.47Z"/><path class="cls-4" d="m282.54,44.64v-1s1.22,0,1.22,0v-2.29s1.08,0,1.08,0v2.29h1.08s0,1,0,1h-1.08v.69c.26.66.73,1.37,1.4,2.1l-.55,1.14c-.45-.59-.6-.81-.85-1.34v4.82s-1.08,0-1.08,0v-4.77c-.24.67-.6,1.41-1.03,2.06l-.47-1.29c.65-.87,1.18-2.1,1.49-3.41h-1.22Zm3.14,4.62h.93v-2.81s2.33,0,2.33,0v-.56h-3.04s0-.85,0-.85h1.66v-.67h-1.25s0-.74,0-.74h1.25v-.56h-1.59s0-.85,0-.85h1.59v-.88s.97,0,.97,0v.88h1.89v-.88s.96,0,.96,0v.88h1.55s0,.85,0,.85h-1.55v.56h1.22s0,.74,0,.74h-1.22v.67h1.89s0,.85,0,.85h-3.41v.56h2.56s0,2.81,0,2.81h.92s0,.81,0,.81h-.92v.74c0,1.02-.2,1.21-1.27,1.21-.25,0-.47,0-.81-.01l-.41-1.05q.9.04,1.06.04c.43,0,.49-.05.49-.32v-.6h-3.96v2.01s-.92,0-.92,0v-2.01h-.93s0-.81,0-.81Zm3.26-1.36v-.63h-1.41v.63h1.41Zm0,1.36v-.62h-1.41v.62h1.41Zm1.48-5.63v-.56h-1.89v.56h1.89Zm0,1.41v-.67h-1.89v.67h1.89Zm1.06,2.86v-.63h-1.63v.63h1.63Zm0,1.36v-.62h-1.63v.62h1.63Z"/><path class="cls-4" d="m17.53,31.85c.06,0,.12,0,.19,0,.05,0,.11,0,.18,0s.12,0,.18,0c.09,0,.17,0,.23-.01s.12-.03.16-.06c.04-.03.07-.08.09-.15s.03-.16.03-.28v-4.23s.94,0,.94,0v4.51c0,.19-.02.35-.06.48-.05.13-.11.23-.2.31-.09.08-.2.13-.33.16-.13.03-.29.05-.46.05-.13,0-.24,0-.36-.02-.11-.01-.21-.03-.3-.05-.1-.02-.2-.04-.28-.07v-.65Z"/><path class="cls-4" d="m21.78,27.13h1.25s1.83,5.41,1.83,5.41h-1.04s-.47-1.47-.47-1.47h-1.9s-.45,1.47-.45,1.47h-1.03s1.81-5.41,1.81-5.41Zm1.31,3.13l-.69-2.29h-.02l-.69,2.29h1.39Z"/><path class="cls-4" d="m25.3,27.13h1.56s2.04,4.56,2.04,4.56h.02c0-.09,0-.18,0-.28,0-.08,0-.17,0-.26v-.27s0-3.76,0-3.76h.93s0,5.41,0,5.41h-1.53s-1.73-3.81-1.73-3.81c-.05-.11-.09-.2-.13-.3-.04-.09-.08-.17-.11-.24-.04-.08-.07-.16-.1-.22h-.02v4.56s-.93,0-.93,0v-5.41Z"/><path class="cls-4" d="m30.94,27.13h2.22c.12,0,.24,0,.36.03.12.02.24.05.35.1.11.05.22.12.31.2.1.08.18.19.25.32s.13.29.17.47.06.4.06.65-.02.46-.07.65c-.04.18-.1.34-.18.47-.08.13-.16.23-.27.31-.1.08-.21.14-.32.19-.12.05-.23.08-.35.1-.12.02-.24.02-.36.02h-1.24v1.9s-.94,0-.94,0v-5.41Zm2.07,2.66c.14,0,.26-.02.34-.07.09-.05.16-.11.21-.19.05-.08.09-.18.1-.28s.03-.23.03-.35c0-.12,0-.24-.03-.35-.02-.11-.05-.21-.1-.29-.05-.08-.12-.15-.21-.2s-.2-.07-.34-.07h-1.13v1.82h1.13Z"/><path class="cls-4" d="m35.22,27.13h.94s0,5.41,0,5.41h-.94s0-5.41,0-5.41Z"/><path class="cls-4" d="m38.58,27.13h1.25s1.83,5.41,1.83,5.41h-1.04s-.47-1.47-.47-1.47h-1.9s-.45,1.47-.45,1.47h-1.03s1.81-5.41,1.81-5.41Zm1.31,3.13l-.69-2.29h-.02l-.69,2.29h1.39Z"/></g></svg>