<?xml version="1.0" encoding="utf-8"?>
<!-- Generator: Adobe Illustrator 27.9.0, SVG Export Plug-In . SVG Version: 6.00 Build 0)  -->
<svg version="1.1" id="レイヤー_1" xmlns="http://www.w3.org/2000/svg" xmlns:xlink="http://www.w3.org/1999/xlink" x="0px"
	 y="0px" viewBox="0 0 108.3 100" style="enable-background:new 0 0 108.3 100;" xml:space="preserve">
<style type="text/css">
	.st0{fill:#165D94;}
</style>
<path id="map" class="st0" d="M67.4,100c-1.5,0-2.7-1.2-2.7-2.7c0,0,0,0,0,0V78.4H34.9c-1.5,0-2.7-1.2-2.7-2.8V63.3
	c0-1.5,1.2-2.7,2.7-2.8h34V40.4c0-1.5,1.2-2.7,2.7-2.8c0,0,0,0,0,0h33.9c1.5,0,2.7,1.2,2.7,2.7c0,0,0,0,0,0v56.9
	c0,0.7-0.3,1.4-0.8,2c-0.5,0.5-1.2,0.8-1.9,0.8L67.4,100z M35.1,100c-1.5,0-2.7-1.2-2.8-2.7c0,0,0,0,0,0V86.7c0-1.5,1.2-2.7,2.8-2.7
	h21.3c0.7,0,1.4,0.3,1.9,0.8c0.5,0.5,0.8,1.2,0.8,1.9v10.5c0,1.5-1.2,2.7-2.7,2.7c0,0,0,0,0,0H35.1z M2.7,100
	c-0.7,0-1.4-0.3-1.9-0.8C0.3,98.7,0,98,0,97.2V63.3c0-1.5,1.2-2.7,2.7-2.8c0,0,0,0,0,0h20.2c1.5,0,2.7,1.2,2.7,2.8v33.9
	c0,1.5-1.2,2.7-2.7,2.7c0,0,0,0,0,0L2.7,100z M71.6,31.2c-1.5,0-2.7-1.2-2.7-2.7V2.8C68.8,1.2,70,0,71.6,0c0,0,0,0,0,0h33.9
	c1.5,0,2.7,1.2,2.7,2.7c0,0,0,0,0,0v25.7c0,1.5-1.2,2.7-2.7,2.7H71.6z"/>
</svg>
