<?xml version="1.0" encoding="utf-8"?>
<!-- Generator: Adobe Illustrator 27.9.0, SVG Export Plug-In . SVG Version: 6.00 Build 0)  -->
<svg version="1.1" id="レイヤー_1" xmlns="http://www.w3.org/2000/svg" xmlns:xlink="http://www.w3.org/1999/xlink" x="0px"
	 y="0px" viewBox="0 0 744.5 618" style="enable-background:new 0 0 744.5 618;" xml:space="preserve">
<style type="text/css">
	.st0{clip-path:url(#SVGID_00000057864827362771012810000000988299548905086121_);}
	.st1{fill:#A065A0;}
	.st2{fill:#66B9D6;}
	.st3{fill:#008CC9;}
	.st4{fill:#5DA052;}
	.st5{fill:#AAC25C;}
	.st6{fill:#E28C3A;}
	.st7{fill:#EED44E;}
	.st8{fill:#C95B78;}
	.st9{fill:#666EAE;}
	.st10{fill:#E08A89;}
	.st11{fill:#CCCCCC;}
</style>
<g id="map" transform="translate(116)">
	<g id="グループ_2">
		<g>
			<g>
				<defs>
					<rect id="SVGID_1_" width="628.5" height="471.5"/>
				</defs>
				<clipPath id="SVGID_00000134955779554972428080000011536903669637112991_">
					<use xlink:href="#SVGID_1_"  style="overflow:visible;"/>
				</clipPath>
				<g id="グループ_1" style="clip-path:url(#SVGID_00000134955779554972428080000011536903669637112991_);">
					<path id="パス_1" class="st1" d="M628.5,57.9c0-1.4-1.1-2.5-2.5-2.5h-31c-1.6-0.1-3.2-0.5-4.6-1.4L510.2,1.4
						c-1.4-0.8-3-1.3-4.6-1.4h-26.1c-1.4,0-2.5,1.1-2.5,2.5v73c-0.1,1.6-0.6,3.1-1.6,4.4l-23.7,28.9c-1,1.3-1.5,2.8-1.6,4.4v29.4
						c0,1.4,1.1,2.5,2.5,2.5h35c1.4,0,2.5-1.1,2.5-2.5v-14.5c0-1.4,1.1-2.5,2.5-2.5h8.5c1.7,0,3.3,0.3,4.9,0.7l55.5,16.9
						c1.4,0.4,3-0.1,3.9-1.2l27.7-35.1c1-1.2,2.5-1.9,4-2H626c1.4,0,2.5-1.1,2.5-2.5V57.9z"/>
					<path id="パス_2" class="st2" d="M532.7,351.4h-30c-1.4,0-2.5,1.1-2.5,2.5v20c0,1.4,1.1,2.5,2.5,2.5l0,0
						c1.4,0,2.5,1.1,2.5,2.5v10c0,1.4,1.1,2.5,2.5,2.5h25c1.4,0,2.5-1.1,2.5-2.5v-35C535.2,352.5,534.1,351.4,532.7,351.4
						L532.7,351.4z"/>
					<path id="パス_3" class="st2" d="M532.7,326.3c-1.4,0-2.5-1.1-2.5-2.5v-10c0-1.4-1.1-2.5-2.5-2.5h-25c-1.4,0-2.5,1.1-2.5,2.5
						v30c0,1.4,1.1,2.5,2.5,2.5h30c1.4,0,2.5-1.1,2.5-2.5v-15C535.2,327.5,534.1,326.4,532.7,326.3L532.7,326.3z"/>
					<path id="長方形_1" class="st2" d="M472.7,311.3h20c1.4,0,2.5,1.1,2.5,2.5v20c0,1.4-1.1,2.5-2.5,2.5h-20
						c-1.4,0-2.5-1.1-2.5-2.5v-20C470.2,312.4,471.3,311.3,472.7,311.3z"/>
					<path id="長方形_2" class="st2" d="M442.7,311.3h20c1.4,0,2.5,1.1,2.5,2.5v20c0,1.4-1.1,2.5-2.5,2.5h-20
						c-1.4,0-2.5-1.1-2.5-2.5v-20C440.2,312.4,441.3,311.3,442.7,311.3z"/>
					<path id="長方形_3" class="st2" d="M442.7,341.4h50c1.4,0,2.5,1.1,2.5,2.5v15c0,1.4-1.1,2.5-2.5,2.5h-50
						c-1.4,0-2.5-1.1-2.5-2.5v-15C440.2,342.5,441.3,341.4,442.7,341.4z"/>
					<path id="長方形_4" class="st2" d="M432.7,366.4h25c1.4,0,2.5,1.1,2.5,2.5v15c0,1.4-1.1,2.5-2.5,2.5h-25
						c-1.4,0-2.5-1.1-2.5-2.5v-15C430.2,367.5,431.3,366.4,432.7,366.4z"/>
					<path id="長方形_5" class="st2" d="M467.7,366.4h25c1.4,0,2.5,1.1,2.5,2.5v10c0,1.4-1.1,2.5-2.5,2.5h-25
						c-1.4,0-2.5-1.1-2.5-2.5v-10C465.2,367.5,466.3,366.4,467.7,366.4z"/>
					<path id="長方形_6" class="st2" d="M467.7,386.4h25c1.4,0,2.5,1.1,2.5,2.5v10c0,1.4-1.1,2.5-2.5,2.5h-25
						c-1.4,0-2.5-1.1-2.5-2.5v-10C465.2,387.5,466.3,386.4,467.7,386.4z"/>
					<path id="パス_4" class="st3" d="M452.7,263.8c-1.6,0.1-3.2,0.5-4.7,1.2l-36.5,20.1c-1.5,0.7-3.1,1.1-4.7,1.2h-9.1
						c-1.4,0-2.5,1.1-2.5,2.5v15c0,1.4,1.1,2.5,2.5,2.5h65c1.4,0,2.5-1.1,2.5-2.5v-37.5c0-1.4-1.1-2.5-2.5-2.5L452.7,263.8z"/>
					<path id="パス_5" class="st3" d="M418.2,257.4c1.2-0.7,1.6-2.2,0.9-3.4l-2.5-4.3c-0.7-1.2-2.2-1.6-3.4-0.9l-13,7.5
						c-1.2,0.7-1.6,2.2-0.9,3.4l1.8,3.2c0.7,1.2,0.3,2.7-0.9,3.4l0,0c-1.2,0.7-1.6,2.2-0.9,3.4l2.5,4.3c0.7,1.2,2.2,1.6,3.4,0.9
						l13-7.5c1.2-0.7,1.6-2.2,0.9-3.4l-1.8-3.2C416.6,259.6,417,258.1,418.2,257.4L418.2,257.4z"/>
					<path id="長方形_7" class="st3" d="M362.6,286.3h25c1.4,0,2.5,1.1,2.5,2.5v15c0,1.4-1.1,2.5-2.5,2.5h-25
						c-1.4,0-2.5-1.1-2.5-2.5v-15C360.1,287.4,361.3,286.3,362.6,286.3z"/>
					<path id="パス_6" class="st3" d="M337.6,266.3c-1.4,0-2.5,1.1-2.5,2.5v20c-0.1,1.6-0.7,3.1-1.8,4.3l-11.5,11.5
						c-1,1-0.6,1.8,0.7,1.8h30c1.4,0,2.5-1.1,2.5-2.5v-35c0-1.4-1.1-2.5-2.5-2.5L337.6,266.3z"/>
					<path id="パス_7" class="st3" d="M355.1,313.8c0-1.4-1.1-2.5-2.5-2.5h-30c-1.4,0-2.5,1.1-2.5,2.5v10c0,1.4-1.1,2.5-2.5,2.5
						h-15c-1.4,0-2.5,1.1-2.5,2.5v10c0,1.4,1.1,2.5,2.5,2.5h50c1.4,0,2.5-1.1,2.5-2.5V313.8z"/>
					<path id="パス_8" class="st4" d="M435.2,313.8c0-1.4-1.1-2.5-2.5-2.5h-35c-1.4,0-2.5,1.1-2.5,2.5v70.1c0,1.4,1.1,2.5,2.5,2.5
						h25c1.4,0,2.5-1.1,2.5-2.5v-20c0-1.4,1.1-2.5,2.5-2.5h5c1.4,0,2.5-1.1,2.5-2.5V313.8z"/>
					<path id="パス_9" class="st4" d="M457.7,391.4h-60c-1.4,0-2.5,1.1-2.5,2.5v25c0,1.4,1.1,2.5,2.5,2.5h25
						c1.6-0.1,3.1-0.7,4.3-1.8l6.5-6.5c1.2-1.1,2.7-1.7,4.3-1.8h5c1.4,0,2.5,1.1,2.5,2.5v5c0,1.4,1.1,2.5,2.5,2.5h10
						c1.4,0,2.5-1.1,2.5-2.5v-25C460.2,392.5,459,391.4,457.7,391.4L457.7,391.4z"/>
					<path id="パス_10" class="st4" d="M362.6,311.3c-1.4,0-2.5,1.1-2.5,2.5v30c0,1.4-1.1,2.5-2.5,2.5h-10c-1.4,0-2.5,1.1-2.5,2.5
						v35c0,1.4,1.1,2.5,2.5,2.5h40c1.4,0,2.5-1.1,2.5-2.5v-70.1c0-1.4-1.1-2.5-2.5-2.5L362.6,311.3z"/>
					<path id="パス_11" class="st4" d="M390.1,401.4v-7.5c0-1.4-1.1-2.5-2.5-2.5h-40c-1.4,0-2.5,1.1-2.5,2.5v15
						c0,1.4,1.1,2.5,2.5,2.5h5c1.4,0,2.5,1.1,2.5,2.5v5c0,1.4,1.1,2.5,2.5,2.5h30c1.4,0,2.5-1.1,2.5-2.5v-15
						C390.1,402.6,390.1,401.4,390.1,401.4"/>
					<path id="長方形_8" class="st4" d="M317.6,391.4h20c1.4,0,2.5,1.1,2.5,2.5V444c0,1.4-1.1,2.5-2.5,2.5h-20
						c-1.4,0-2.5-1.1-2.5-2.5v-50.1C315.1,392.5,316.2,391.4,317.6,391.4z"/>
					<path id="長方形_9" class="st5" d="M317.6,346.4h20c1.4,0,2.5,1.1,2.5,2.5v35c0,1.4-1.1,2.5-2.5,2.5h-20
						c-1.4,0-2.5-1.1-2.5-2.5v-35C315.1,347.5,316.2,346.4,317.6,346.4z"/>
					<path id="パス_12" class="st5" d="M297.6,346.4c-1.4,0-2.5-1.1-2.5-2.5v-15c0-1.4-1.1-2.5-2.5-2.5h-15
						c-1.4,0-2.5,1.1-2.5,2.5V384c0,1.4,1.1,2.5,2.5,2.5h30c1.4,0,2.5-1.1,2.5-2.5v-35c0-1.4-1.1-2.5-2.5-2.5L297.6,346.4z"/>
					<path id="長方形_10" class="st5" d="M297.6,391.4h10c1.4,0,2.5,1.1,2.5,2.5v25c0,1.4-1.1,2.5-2.5,2.5h-10
						c-1.4,0-2.5-1.1-2.5-2.5v-25C295.1,392.5,296.2,391.4,297.6,391.4z"/>
					<path id="長方形_11" class="st5" d="M277.6,391.4h10c1.4,0,2.5,1.1,2.5,2.5v15c0,1.4-1.1,2.5-2.5,2.5h-10
						c-1.4,0-2.5-1.1-2.5-2.5v-15C275.1,392.5,276.2,391.4,277.6,391.4z"/>
					<path id="パス_13" class="st5" d="M292.6,426.5c-1.4,0-2.5-1.1-2.5-2.5v-5c0-1.4-1.1-2.5-2.5-2.5h-10c-1.4,0-2.5,1.1-2.5,2.5
						v25c0,1.4,1.1,2.5,2.5,2.5h30c1.4,0,2.5-1.1,2.5-2.5v-15c0-1.4-1.1-2.5-2.5-2.5H292.6z"/>
					<path id="パス_14" class="st5" d="M256.3,412.6c-0.9,1.1-2.5,1.2-3.5,0.3l-3.2-2.7c-1.1-0.9-1.2-2.5-0.3-3.5l8.6-10.3
						c0.9-1.1,2.5-1.2,3.5-0.3l3.2,2.7c1.1,0.9,1.2,2.5,0.3,3.5L256.3,412.6z"/>
					<path id="長方形_12" class="st5" d="M237.6,336.4h30c1.4,0,2.5,1.1,2.5,2.5v45c0,1.4-1.1,2.5-2.5,2.5h-30
						c-1.4,0-2.5-1.1-2.5-2.5v-45C235.1,337.5,236.2,336.4,237.6,336.4z"/>
					<path id="長方形_13" class="st6" d="M192.6,336.4h35c1.4,0,2.5,1.1,2.5,2.5v17.5c0,1.4-1.1,2.5-2.5,2.5h-35
						c-1.4,0-2.5-1.1-2.5-2.5v-17.5C190.1,337.5,191.2,336.4,192.6,336.4z"/>
					<path id="長方形_14" class="st6" d="M192.6,363.9h35c1.4,0,2.5,1.1,2.5,2.5v17.5c0,1.4-1.1,2.5-2.5,2.5h-35
						c-1.4,0-2.5-1.1-2.5-2.5v-17.5C190.1,365,191.2,363.9,192.6,363.9z"/>
					<path id="長方形_15" class="st6" d="M147.6,336.4h35c1.4,0,2.5,1.1,2.5,2.5v17.5c0,1.4-1.1,2.5-2.5,2.5h-35
						c-1.4,0-2.5-1.1-2.5-2.5v-17.5C145.1,337.5,146.2,336.4,147.6,336.4z"/>
					<path id="長方形_16" class="st6" d="M147.6,363.9h35c1.4,0,2.5,1.1,2.5,2.5v17.5c0,1.4-1.1,2.5-2.5,2.5h-35
						c-1.4,0-2.5-1.1-2.5-2.5v-17.5C145.1,365,146.2,363.9,147.6,363.9z"/>
					<path id="パス_15" class="st6" d="M102.5,336.4c-1.4,0-2.5,1.1-2.5,2.5v15c0,1.4,1.1,2.5,2.5,2.5h10c1.4,0,2.5,1.1,2.5,2.5
						v25c0,1.4,1.1,2.5,2.5,2.5h20c1.4,0,2.5-1.1,2.5-2.5v-45c0-1.4-1.1-2.5-2.5-2.5H102.5z"/>
					<path id="長方形_17" class="st7" d="M197.6,396.4h40c1.4,0,2.5,1.1,2.5,2.5v10c0,1.4-1.1,2.5-2.5,2.5h-40
						c-1.4,0-2.5-1.1-2.5-2.5v-10C195.1,397.5,196.2,396.4,197.6,396.4z"/>
					<path id="パス_16" class="st7" d="M240.1,429c0,1.2-0.9,2.2-2.1,2.2c-0.1,0-0.2,0-0.3,0l-40-4.5c-1.4-0.2-2.5-1.4-2.5-2.8v-5
						c0-1.4,1.1-2.5,2.5-2.5h40c1.4,0,2.5,1.1,2.5,2.5L240.1,429z"/>
					<path id="パス_17" class="st7" d="M240.1,439c0-1.4-1.1-2.6-2.5-2.8l-40-4.5c-1.4-0.2-2.5-0.3-2.5-0.3l0,0c0,0-1.1,0-2.5,0
						h-40c-1.4,0-2.5,1.1-2.5,2.5v10c0,1.4,1.1,2.5,2.5,2.5h85c1.4,0,2.5-1.1,2.5-2.5V439z"/>
					<path id="パス_18" class="st7" d="M182.6,411.4c-1.4,0-2.5-1.1-2.5-2.5v-10c0-1.4-1.1-2.5-2.5-2.5h-25
						c-1.4,0-2.5,1.1-2.5,2.5v25l0,0c0,1.4,1.1,2.5,2.5,2.5h35c1.4,0,2.5-1.1,2.5-2.5v-10c0-1.4-1.1-2.5-2.5-2.5H182.6z"/>
					<path id="パス_19" class="st8" d="M95,338.9c0-1.4-1.1-2.5-2.5-2.5h-50c-1.4,0-2.5,1.1-2.5,2.5v40c0,1.4,1.1,2.5,2.5,2.5h25
						c1.4,0,2.5-1.1,2.5-2.5v-25c0-1.4,1.1-2.5,2.5-2.5h20c1.4,0,2.5-1.1,2.5-2.5V338.9z"/>
					<path id="長方形_18" class="st8" d="M22.5,336.4h10c1.4,0,2.5,1.1,2.5,2.5v30c0,1.4-1.1,2.5-2.5,2.5h-10
						c-1.4,0-2.5-1.1-2.5-2.5v-30C20,337.5,21.1,336.4,22.5,336.4z"/>
					<path id="長方形_19" class="st8" d="M2.5,336.4h10c1.4,0,2.5,1.1,2.5,2.5v45c0,1.4-1.1,2.5-2.5,2.5h-10
						c-1.4,0-2.5-1.1-2.5-2.5v-45C0,337.5,1.1,336.4,2.5,336.4z"/>
					<path id="長方形_20" class="st8" d="M77.5,356.4h15c1.4,0,2.5,1.1,2.5,2.5v30c0,1.4-1.1,2.5-2.5,2.5h-15
						c-1.4,0-2.5-1.1-2.5-2.5v-30C75,357.5,76.1,356.4,77.5,356.4z"/>
					<path id="長方形_21" class="st8" d="M42.5,386.4h25c1.4,0,2.5,1.1,2.5,2.5v40c0,1.4-1.1,2.5-2.5,2.5h-25
						c-1.4,0-2.5-1.1-2.5-2.5v-40C40,387.5,41.1,386.4,42.5,386.4z"/>
					<path id="長方形_22" class="st8" d="M77.5,396.4h15c1.4,0,2.5,1.1,2.5,2.5v30c0,1.4-1.1,2.5-2.5,2.5h-15
						c-1.4,0-2.5-1.1-2.5-2.5v-30C75,397.5,76.1,396.4,77.5,396.4z"/>
					<path id="パス_20" class="st8" d="M82.5,436.5h-40c-1.4,0-2.5,1.1-2.5,2.5v25c0,1.4,1.1,2.5,2.5,2.5h15
						c1.4,0,2.5-1.1,2.5-2.5v-5c0-1.4,1.1-2.5,2.5-2.5h10c1.4,0,2.5,1.1,2.5,2.5v10c0,1.4,1.1,2.5,2.5,2.5h15c1.4,0,2.5-1.1,2.5-2.5
						v-30c0-1.4-1.1-2.5-2.5-2.5H82.5z"/>
					<path id="パス_21" class="st9" d="M526.6,167.1c-0.9-1.4-1.4-2.9-1.4-4.5v-13.9c0-1.4-1.1-2.5-2.5-2.5h-20
						c-1.4,0-2.5,1.1-2.5,2.5v13.9c0,1.4-1.1,2.5-2.5,2.5h-15c-1.4,0-2.5-1.1-2.5-2.5v-5.3c0-1.4-1.1-2.5-2.5-2.5h-25
						c-1.4,0-2.5,1.1-2.5,2.5v26.4c0,1.4,1.1,2.5,2.5,2.5h85c1.4,0,1.8-0.9,1.1-2L526.6,167.1z"/>
					<path id="長方形_23" class="st9" d="M452.7,191.2h35c1.4,0,2.5,1.1,2.5,2.5v30c0,1.4-1.1,2.5-2.5,2.5h-35
						c-1.4,0-2.5-1.1-2.5-2.5v-30C450.2,192.3,451.3,191.2,452.7,191.2z"/>
					<path id="パス_22" class="st9" d="M540.2,213.7c-0.1,1.6-0.7,3.1-1.8,4.3l-6.5,6.5c-1.2,1.1-2.7,1.7-4.3,1.8h-30
						c-1.4,0-2.5-1.1-2.5-2.5v-30c0-1.4,1.1-2.5,2.5-2.5h40c1.4,0,2.5,1.1,2.5,2.5L540.2,213.7z"/>
					<path id="長方形_24" class="st9" d="M497.7,231.2h30c1.4,0,2.5,1.1,2.5,2.5v30c0,1.4-1.1,2.5-2.5,2.5h-30
						c-1.4,0-2.5-1.1-2.5-2.5v-30C495.2,232.4,496.3,231.2,497.7,231.2z"/>
					<path id="長方形_25" class="st9" d="M472.7,271.3h55c1.4,0,2.5,1.1,2.5,2.5v30c0,1.4-1.1,2.5-2.5,2.5h-55
						c-1.4,0-2.5-1.1-2.5-2.5v-30C470.2,272.4,471.3,271.3,472.7,271.3z"/>
					<path id="パス_23" class="st9" d="M472.7,231.2h-20c-1.4,0-2.5,1.1-2.5,2.5v22.5c0,1.4,1.1,2.5,2.5,2.5h15
						c1.4,0,2.5,1.1,2.5,2.5v2.5c0,1.4,1.1,2.5,2.5,2.5h15c1.4,0,2.5-1.1,2.5-2.5v-30c0-1.4-1.1-2.5-2.5-2.5L472.7,231.2z"/>
				</g>
			</g>
		</g>
	</g>
	<path id="okinawa" class="st10" d="M-83.3,495.6c-1.4,0.4-2.9-0.4-3.3-1.8l-3.5-12c-0.4-1.4,0.4-2.9,1.8-3.3l28.1-8.2
		c1.4-0.4,2.9,0.4,3.3,1.8l3.5,12c0.4,1.4-0.4,2.9-1.8,3.3L-83.3,495.6z"/>
	<polygon class="st11" points="6,618 4,618 4,484.9 -54.9,426 -116,426 -116,424 -54.1,424 6,484.1 	"/>
</g>
</svg>
