<?xml version="1.0" encoding="utf-8"?>
<!-- Generator: Adobe Illustrator 27.9.0, SVG Export Plug-In . SVG Version: 6.00 Build 0)  -->
<svg version="1.1" id="レイヤー_1" xmlns="http://www.w3.org/2000/svg" xmlns:xlink="http://www.w3.org/1999/xlink" x="0px"
	 y="0px" viewBox="0 0 100 100" style="enable-background:new 0 0 100 100;" xml:space="preserve">
<style type="text/css">
	.st0{fill:#617789;}
</style>
<path id="icon" class="st0" d="M0,100V36.3l7.5-7.5L36.3,0h43.5v7.7l-7.5,7.2V7.5h-36v28.9H7.5v56.2h64.9V63.7l7.5-7.8V100H0z
	 M30.2,77.2l5.8-19c0.1-0.4,0.3-0.8,0.6-1.1l47.7-45.8c1-1,2.6-1,3.6,0l11.3,11.4c1,1,1,2.6,0,3.6L52.9,74.5l-19.6,6
	c-0.2,0.1-0.5,0.1-0.8,0.1c-1.4,0-2.5-1.2-2.5-2.6C30.1,77.7,30.1,77.5,30.2,77.2L30.2,77.2z M37.2,69.4l3.7,4.1l8.7-2.7l-3.4-6.4
	l-6.4-3.5L37.2,69.4z M48.8,59.2l2.6,2.6l40.7-40.9l0,0l-2.3-2.3L48.8,59.2z"/>
</svg>
