<?xml version="1.0" encoding="utf-8"?>
<!-- Generator: Adobe Illustrator 27.9.0, SVG Export Plug-In . SVG Version: 6.00 Build 0)  -->
<svg version="1.1" id="レイヤー_1" xmlns="http://www.w3.org/2000/svg" xmlns:xlink="http://www.w3.org/1999/xlink" x="0px"
	 y="0px" viewBox="0 0 100 100" style="enable-background:new 0 0 100 100;" xml:space="preserve">
<style type="text/css">
	.st0{fill:#617789;}
</style>
<path id="icon" class="st0" d="M0,100V22.9h22.9V0h54.2v45.8H100V100H57.4V77.1H42.6V100H0z M8.3,91.7h14.6V77.1H8.3V91.7z
	 M8.3,68.8h14.6V54.2H8.3V68.8z M8.3,45.8h14.6V31.2H8.3V45.8z M31.2,68.8h14.6V54.2H31.2V68.8z M31.2,45.8h14.6V31.2H31.2V45.8z
	 M31.2,22.9h14.6V8.3H31.2V22.9z M54.2,68.8h14.6V54.2H54.2V68.8z M54.2,45.8h14.6V31.2H54.2V45.8z M54.2,22.9h14.6V8.3H54.2V22.9z
	 M77.1,91.7h14.6V77.1H77.1V91.7z M77.1,68.8h14.6V54.2H77.1V68.8z"/>
</svg>
